<svg viewBox="-2.4 -2.4 28.80 28.80" xmlns="http://www.w3.org/2000/svg" fill="#000000"><g id="SVGRepo_bgCarrier" stroke-width="0"><path transform="translate(-2.4, -2.4), scale(1.7999999999999998)" fill="#7ed0ec" d="M9.166.33a2.25 2.25 0 00-2.332 0l-5.25 3.182A2.25 2.25 0 00.5 5.436v5.128a2.25 2.25 0 001.084 1.924l5.25 3.182a2.25 2.25 0 002.332 0l5.25-3.182a2.25 2.25 0 001.084-1.924V5.436a2.25 2.25 0 00-1.084-1.924L9.166.33z" strokewidth="0"></path></g><g id="SVGRepo_tracerCarrier" stroke-linecap="round" stroke-linejoin="round"></g><g id="SVGRepo_iconCarrier"> <g> <path fill="none" d="M0 0h24v24H0z"></path> <path d="M24 12l-5.657 5.657-1.414-1.414L21.172 12l-4.243-4.243 1.414-1.414L24 12zM2.828 12l4.243 4.243-1.414 1.414L0 12l5.657-5.657L7.07 7.757 2.828 12zm6.96 9H7.66l6.552-18h2.128L9.788 21z"></path> </g> </g></svg>