<?xml version="1.0" encoding="utf-8"?>
<!-- Generator: Adobe Illustrator 13.0.0, SVG Export Plug-In . SVG Version: 6.00 Build 14948)  -->
<!DOCTYPE svg PUBLIC "-//W3C//DTD SVG 1.0//EN" "http://www.w3.org/TR/2001/REC-SVG-20010904/DTD/svg10.dtd">
<svg version="1.0" id="Layer_1" xmlns="http://www.w3.org/2000/svg" xmlns:xlink="http://www.w3.org/1999/xlink" x="0px" y="0px"
	 width="500px" height="500px" viewBox="0 0 500 500" enable-background="new 0 0 500 500" xml:space="preserve">
<path d="M310.949,129.351c-11.301-33.1-25.199-51.6-25.199-51.6l-2.301-3.3c0,0-20.4-26.5-35-31.9c-9.6,3.1-30.799,32.3-30.799,32.3
	l-2,2.9c0,0-14,18.6-25.3,51.9l-1.801,6h124.4C312.35,133.451,311.648,131.351,310.949,129.351z M320.85,259.451
	c2.5-13.6,4-28.4,4-44c0-26.5-3.701-49.8-8.801-69.2c-0.4-1.2-0.699-2.4-1-3.6h-128.6l-1.101,3.6c-5.1,19.5-8.899,42.8-8.899,69.2
	c0,15.6,1.5,30.299,4,44H320.85z M249.5,160.051c13.807,0,25,18.446,25,41.2c0,22.755-11.193,41.201-25,41.201s-25-18.446-25-41.201
	C224.5,178.497,235.693,160.051,249.5,160.051z M281.949,396.951c0,0-0.02,0.01-0.025,0.012l-0.875-3.012
	c-4-13.4-16.299-22.701-30.299-22.701s-26.299,9.201-30.199,22.701l-0.875,3.012c-0.01-0.004-0.018-0.008-0.025-0.012l-5.9,23.199
	c-1.299,5,4.6,8.701,8.5,5.301l17.801-15.6l7.6,43.898c0.301,1.602,1.6,2.699,3.199,2.699c1.5,0,2.801-1.1,3.102-2.6l7.6-43.9
	l17.801,15.5c3.9,3.301,9.799-0.299,8.5-5.299L281.949,396.951z M314.045,287.967c0.002-0.006,0.002-0.012,0.004-0.016
	c1.701-5.5,3.201-11.301,4.602-17.4c0.301-1.398,0.602-2.699,0.898-4.1H181.75c0.2,0.9,0.4,1.799,0.601,2.699
	c1.399,6.301,3,12.301,4.699,18.1c0.015,0.049,0.029,0.096,0.043,0.143c-42.771,10.846-49.76,49.914-49.942,73.459
	c-0.101,10.199,8.2,18.398,18.399,18.398c9.4,0,17.4-7.1,18.301-16.5c2.584-26.033,17.326-33.58,28.285-35.535
	c0.004,0.012,0.01,0.023,0.016,0.035c0.4,0.701,0.699,1.5,1,2.201c4.199,9.299,10.9,17,19.099,22.4
	c8.301,5.398,18.1,8.398,28.301,8.398c19.6,0,37.5-11,46.299-28.6c0.602-1.301,1.199-2.602,1.9-4
	c0.006-0.016,0.014-0.031,0.021-0.047c10.691,2.484,23.939,10.596,26.377,35.146c0.9,9.4,8.9,16.5,18.301,16.5
	c10.199,0,18.5-8.199,18.4-18.398C361.668,337.703,354.91,299.555,314.045,287.967z"/>
</svg>
